<svg width="90" height="79" viewBox="0 0 90 79" fill="none" xmlns="http://www.w3.org/2000/svg">
<path id="Vector" d="M84.5411 27.3543C80.6911 22.6027 74.8855 19.8461 68.7549 19.8589H61.2258L61.5583 17.9161C62.9138 10.0012 57.5707 2.49064 49.624 1.14056C48.7497 0.992016 47.8635 0.92311 46.9766 0.934883C41.4044 0.90597 36.2925 4.00986 33.7656 8.95638L28.1796 19.8589H20.488C9.27124 19.8712 0.181113 28.9248 0.168945 40.0967V58.4946C0.181113 69.6666 9.27124 78.7201 20.488 78.7322H64.8501C74.438 78.6976 82.7096 72.021 84.7295 62.6856L88.6345 44.2877C89.9158 38.3171 88.4105 32.0898 84.5411 27.3543ZM11.252 58.4944V40.0967C11.252 35.0164 15.387 30.8978 20.488 30.8978H26.0296V67.6934H20.488C15.3872 67.6934 11.252 63.575 11.252 58.4944ZM77.7914 42.0027L73.8827 60.4006C72.9661 64.6434 69.2072 67.6782 64.8499 67.6936H37.1126V26.7066L43.6369 13.9716C44.3284 12.6825 45.703 11.905 47.1687 11.9737C49.1111 11.9749 50.6847 13.5443 50.6835 15.4789C50.6833 15.6742 50.6668 15.8691 50.6341 16.0617L48.0961 30.8978H68.7549C73.8557 30.8972 77.9912 35.0153 77.9918 40.0957C77.9919 40.7366 77.9247 41.3756 77.7914 42.0027Z" fill="#F7F6EC"/>
</svg>
