<svg width="92" height="92" viewBox="0 0 92 92" fill="none" xmlns="http://www.w3.org/2000/svg">
<path id="Vector" d="M45.6117 91.867C39.451 91.867 33.6388 89.1618 29.6681 84.4446C23.8332 85.1152 17.8202 82.9063 13.463 78.5529C9.10954 74.1956 6.91198 68.1713 7.43864 62.0257C2.85029 58.3732 0.14502 52.5611 0.14502 46.4003C0.14502 40.2396 2.85029 34.4274 7.57125 30.4567C6.90819 24.6331 9.10575 18.6088 13.463 14.2516C17.8202 9.89054 23.8332 7.69677 29.9863 8.22721C33.6388 3.64265 39.451 0.933594 45.6117 0.933594C51.7725 0.933594 57.5846 3.63886 61.5554 8.35604C67.3979 7.68919 73.4033 9.89433 77.7605 14.2478C82.1139 18.605 84.3115 24.6293 83.7848 30.7749C88.3732 34.4274 91.0785 40.2396 91.0785 46.4003C91.0785 52.5611 88.3732 58.3732 83.6522 62.344C84.3153 68.1675 82.1177 74.1918 77.7605 78.5491C73.3995 82.9063 67.3751 85.1001 61.2371 84.5734C57.5846 89.158 51.7725 91.867 45.6117 91.867ZM29.975 76.9994C32.1005 76.9994 34.0708 77.9125 35.4613 79.5607C37.9923 82.5653 41.6902 84.2893 45.6117 84.2893C49.5332 84.2893 53.2312 82.5653 55.7622 79.5607C57.2891 77.7458 59.5132 76.8289 61.885 77.0222C65.8028 77.3518 69.6295 75.9613 72.403 73.1878C75.1727 70.4181 76.5708 66.5838 76.2374 62.6698C76.0328 60.3056 76.9573 58.0739 78.7759 56.5432C81.7767 54.016 83.5007 50.3142 83.5007 46.3965C83.5007 42.4788 81.7767 38.7771 78.7759 36.2499C76.961 34.7229 76.0328 32.4875 76.2374 30.1232C76.5708 26.2093 75.1765 22.3749 72.403 19.6053C69.6295 16.8356 65.78 15.4526 61.8888 15.7709C59.517 15.9869 57.2891 15.0472 55.7622 13.2361C53.2312 10.2315 49.5332 8.50759 45.6117 8.50759C41.6902 8.50759 37.9923 10.2315 35.4613 13.2361C33.9306 15.051 31.6989 15.9603 29.3384 15.7747C25.4018 15.4337 21.5939 16.8356 18.8205 19.609C16.0508 22.3787 14.6527 26.2131 14.9861 30.127C15.1907 32.4913 14.2662 34.7229 12.4476 36.2537C9.44675 38.7808 7.72281 42.4826 7.72281 46.4003C7.72281 50.318 9.44675 54.0198 12.4476 56.547C14.2624 58.0739 15.1907 60.3093 14.9861 62.6736C14.6527 66.5875 16.047 70.4219 18.8205 73.1916C21.5939 75.965 25.4624 77.3518 29.3347 77.0259C29.5506 77.007 29.7628 76.9994 29.975 76.9994ZM34.2451 31.2447C32.1536 31.2447 30.4562 32.9422 30.4562 35.0336C30.4562 37.1251 32.1536 38.8225 34.2451 38.8225C36.3365 38.8225 38.034 37.1251 38.034 35.0336C38.034 32.9422 36.3365 31.2447 34.2451 31.2447ZM56.9784 53.9781C54.887 53.9781 53.1895 55.6755 53.1895 57.767C53.1895 59.8585 54.887 61.5559 56.9784 61.5559C59.0699 61.5559 60.7673 59.8585 60.7673 57.767C60.7673 55.6755 59.0699 53.9781 56.9784 53.9781ZM41.1863 59.8698L56.3419 37.1365C57.5051 35.3974 57.0353 33.0407 55.2924 31.8813C53.5457 30.7143 51.1966 31.1917 50.0372 32.9308L34.8816 55.6642C33.7184 57.4033 34.1882 59.76 35.9311 60.9194C36.579 61.3513 37.3065 61.5559 38.0302 61.5559C39.254 61.5559 40.4588 60.9648 41.1863 59.8698Z" fill="#F7F6EC"/>
</svg>
