<svg width="88" height="82" viewBox="0 0 88 82" fill="none" xmlns="http://www.w3.org/2000/svg">
<path id="Vector" d="M37.0082 11.2058H0.803223V0.183594H37.0082V11.2058ZM29.7672 18.554H0.803223V29.5762H29.7672V18.554ZM87.6952 69.9911H76.6454C76.7685 70.5826 76.8337 71.1962 76.8337 71.8281C76.8337 76.902 72.7823 81.0133 67.7824 81.0133C62.7825 81.0133 58.7312 76.902 58.7312 71.8281C58.7312 71.1962 58.7964 70.5826 58.9195 69.9911H29.5789C29.702 70.5826 29.7672 71.1962 29.7672 71.8281C29.7672 76.902 25.7159 81.0133 20.716 81.0133C15.7161 81.0133 11.6647 76.902 11.6647 71.8281C11.6647 71.1962 11.7299 70.5826 11.853 69.9911H0.803223V36.9244H22.5262V47.9466H11.6647V58.9688H51.4902V13.0429C51.4902 12.0288 50.6756 11.2058 49.6799 11.2058H44.2492V0.183594H49.6799C56.6675 0.183594 62.3517 5.9519 62.3517 13.0429V14.8799H67.7824C78.7598 14.8799 87.6952 23.9439 87.6952 35.0873V69.9911ZM62.3517 25.9021V44.2725H76.8337V35.0873C76.8337 30.0245 72.7751 25.9021 67.7824 25.9021H62.3517Z" fill="#F7F6EC"/>
</svg>
